{
  "asset": {
    "generator": "Khronos glTF Blender I/O v4.4.56",
    "version": "2.0"
  },
  "extensionsUsed": [
    "KHR_texture_transform",
    "KHR_materials_specular"
  ],
  "extensionsRequired": [
    "KHR_texture_transform"
  ],
  "scene": 0,
  "scenes": [
    {
      "name": "Scene",
      "nodes": [
        0
      ]
    }
  ],
  "nodes": [
    {
      "mesh": 0,
      "name": "sphere_gltf"
    }
  ],
  "materials": [
    {
      "doubleSided": true,
      "extensions": {
        "KHR_materials_specular": {
          "specularTexture": {
            "extensions": {
              "KHR_texture_transform": {
                "scale": [
                  0.9942182302474976,
                  1
                ]
              }
            },
            "index": 0
          }
        }
      },
      "name": "hessian_230",
      "normalTexture": {
        "extensions": {
          "KHR_texture_transform": {
            "scale": [
              0.9942182302474976,
              1
            ]
          }
        },
        "index": 1
      },
      "pbrMetallicRoughness": {
        "baseColorTexture": {
          "extensions": {
            "KHR_texture_transform": {
              "scale": [
                0.9942182302474976,
                1
              ]
            }
          },
          "index": 2
        },
        "metallicRoughnessTexture": {
          "extensions": {
            "KHR_texture_transform": {
              "scale": [
                0.9942182302474976,
                1
              ]
            }
          },
          "index": 3
        }
      }
    }
  ],
  "meshes": [
    {
      "name": "Sphere.001",
      "primitives": [
        {
          "attributes": {
            "POSITION": 0,
            "NORMAL": 1,
            "TEXCOORD_0": 2
          },
          "indices": 3,
          "material": 0
        }
      ]
    }
  ],
  "textures": [
    {
      "sampler": 0,
      "source": 0
    },
    {
      "sampler": 0,
      "source": 1
    },
    {
      "sampler": 0,
      "source": 2
    },
    {
      "sampler": 0,
      "source": 3
    }
  ],
  "images": [
    {
      "mimeType": "image/jpeg",
      "name": "hessian_230_spec_ior",
      "uri": "textures/hessian_230_spec_ior_1k.jpg"
    },
    {
      "mimeType": "image/jpeg",
      "name": "hessian_230_nor_gl",
      "uri": "textures/hessian_230_nor_gl_1k.jpg"
    },
    {
      "mimeType": "image/jpeg",
      "name": "hessian_230_diff",
      "uri": "textures/hessian_230_diff_1k.jpg"
    },
    {
      "mimeType": "image/jpeg",
      "name": "hessian_230_metal-hessian_230_rough",
      "uri": "textures/hessian_230_arm_1k.jpg"
    }
  ],
  "accessors": [
    {
      "bufferView": 0,
      "componentType": 5126,
      "count": 53914,
      "max": [
        0.13406886160373688,
        0.1340579241514206,
        0.13404874503612518
      ],
      "min": [
        -0.13406731188297272,
        -0.133875772356987,
        -0.13404370844364166
      ],
      "type": "VEC3"
    },
    {
      "bufferView": 1,
      "componentType": 5126,
      "count": 53914,
      "type": "VEC3"
    },
    {
      "bufferView": 2,
      "componentType": 5126,
      "count": 53914,
      "type": "VEC2"
    },
    {
      "bufferView": 3,
      "componentType": 5123,
      "count": 322170,
      "type": "SCALAR"
    }
  ],
  "bufferViews": [
    {
      "buffer": 0,
      "byteLength": 646968,
      "byteOffset": 0,
      "target": 34962
    },
    {
      "buffer": 0,
      "byteLength": 646968,
      "byteOffset": 646968,
      "target": 34962
    },
    {
      "buffer": 0,
      "byteLength": 431312,
      "byteOffset": 1293936,
      "target": 34962
    },
    {
      "buffer": 0,
      "byteLength": 644340,
      "byteOffset": 1725248,
      "target": 34963
    }
  ],
  "samplers": [
    {
      "magFilter": 9729,
      "minFilter": 9987
    }
  ],
  "buffers": [
    {
      "byteLength": 2369588,
      "uri": "hessian_230.bin"
    }
  ]
}