<svg id="Capa_1" enable-background="new 0 0 512 512" height="512" viewBox="0 0 512 512" width="512" xmlns="http://www.w3.org/2000/svg"><g><g><path d="m512 511.774h-64.875l-10-30h74.875z" fill="#edb943"/></g><g><path d="m438.333 419.963h73.667v30h-73.667z" fill="#edb943"/></g><g><path d="m438.333 358.152h73.667v30h-73.667z" fill="#edb943"/></g><g><path d="m512 296.341h-73.667v15l36.23 10 37.437-10z" fill="#f2d283"/><path d="m438.333 311.341h73.667v15h-73.667z" fill="#edb943"/></g><g><path d="m438.333 234.53h73.667v30h-73.667z" fill="#f2d283"/></g><g><path d="m438.333 172.719h73.667v30h-73.667z" fill="#f2d283"/></g><g><path d="m512 140.908h-74.875l10-30h64.875z" fill="#f2d283"/></g><g><path d="m62.841 110.908-62.841-47.841v61.811c0 17.396 7.752 109.225 10 123.622 0 34.706 18.135 72.841 52.841 72.841l384.284-10v-200.433z" fill="#7ea380"/><path d="m0 248.5 10 84.774-10 38.848v76.811c0 34.706 28.135 62.841 62.841 62.841h384.284v-200.433h-384.284c-34.706 0-62.841-28.135-62.841-62.841z" fill="#4d725f"/></g><g><path d="m62.841 321.341 322.473-10v-123.622h-49.219l-15 10-15-10h-34.219l-15.876 10-14.124-10h-34.219l-15 10-15-10h-34.219l-15 10-15-10h-34.22l-16.378 10-13.626-11.481c-28.154-6.225-49.214-31.333-49.214-61.36v123.622c0 34.706 28.135 72.841 62.841 72.841z" fill="#f2d283"/><path d="m62.841 311.341c-34.706 0-62.841-28.135-62.841-62.841v123.622c0 30.027 21.06 55.135 49.215 61.36l13.626-8.519 16.378 10h34.22l13.812-10 16.188 10h34.219l15-10 15 10h34.219l14.124-10 15.876 10h34.219l15-10 15 10h49.219v-123.622z" fill="#edb943"/></g><circle cx="55.341" cy="55.567" fill="#4d725f" r="55.341"/><g><path d="m79.219 311.341v-123.622h-16.378c-4.68 0-9.234-.527-13.622-1.498v123.622l13.622 11.498z" fill="#edb943"/><path d="m62.841 311.341c-4.68 0-9.234-.527-13.622-1.498v123.622c4.388.97 8.942 1.498 13.622 1.498h16.378v-123.622z" fill="#e6973e"/></g><path d="m40.341 40.567h30v30h-30z" fill="#3a5948"/><g><path d="m143.438 187.719h-30v123.622l15 10 15-10z" fill="#edb943"/><path d="m113.438 311.341h30v123.622h-30z" fill="#e6973e"/></g><g><path d="m207.657 187.719h-30v123.622l15 10 15-10z" fill="#edb943"/><path d="m177.657 311.341h30v123.622h-30z" fill="#e6973e"/></g><g><path d="m241.876 187.719v123.622l14.124 10 15.876-10v-123.622z" fill="#edb943"/><path d="m241.876 311.341h30v123.622h-30z" fill="#e6973e"/><path d="m336.095 187.719h-30v123.622l15 10 15-10z" fill="#edb943"/><path d="m306.095 311.341h30v123.622h-30z" fill="#e6973e"/></g></g></svg>