{
  "asset": {
    "generator": "Khronos glTF Blender I/O v4.4.56",
    "version": "2.0"
  },
  "extensionsUsed": [
    "KHR_texture_transform",
    "KHR_materials_specular",
    "KHR_materials_sheen"
  ],
  "extensionsRequired": [
    "KHR_texture_transform"
  ],
  "scene": 0,
  "scenes": [
    {
      "name": "Scene",
      "nodes": [
        0
      ]
    }
  ],
  "nodes": [
    {
      "mesh": 0,
      "name": "sphere_gltf"
    }
  ],
  "materials": [
    {
      "doubleSided": true,
      "extensions": {
        "KHR_materials_specular": {
          "specularTexture": {
            "extensions": {
              "KHR_texture_transform": {
                "scale": [
                  1.0178593397140503,
                  1
                ]
              }
            },
            "index": 0
          }
        },
        "KHR_materials_sheen": {
          "sheenColorFactor": [
            1,
            0.6936109066009521,
            0.44200599193573
          ],
          "sheenRoughnessFactor": 0.5
        }
      },
      "name": "crepe_satin",
      "normalTexture": {
        "extensions": {
          "KHR_texture_transform": {
            "scale": [
              1.0178593397140503,
              1
            ]
          }
        },
        "index": 1
      },
      "pbrMetallicRoughness": {
        "baseColorTexture": {
          "extensions": {
            "KHR_texture_transform": {
              "scale": [
                1.0178593397140503,
                1
              ]
            }
          },
          "index": 2
        },
        "metallicRoughnessTexture": {
          "extensions": {
            "KHR_texture_transform": {
              "scale": [
                1.0178593397140503,
                1
              ]
            }
          },
          "index": 3
        }
      }
    }
  ],
  "meshes": [
    {
      "name": "Sphere.001",
      "primitives": [
        {
          "attributes": {
            "POSITION": 0,
            "NORMAL": 1,
            "TEXCOORD_0": 2
          },
          "indices": 3,
          "material": 0
        }
      ]
    }
  ],
  "textures": [
    {
      "sampler": 0,
      "source": 0
    },
    {
      "sampler": 0,
      "source": 1
    },
    {
      "sampler": 0,
      "source": 2
    },
    {
      "sampler": 0,
      "source": 3
    }
  ],
  "images": [
    {
      "mimeType": "image/jpeg",
      "name": "crepe_satin_spec_ior",
      "uri": "textures/crepe_satin_spec_ior_1k.jpg"
    },
    {
      "mimeType": "image/jpeg",
      "name": "crepe_satin_nor_gl",
      "uri": "textures/crepe_satin_nor_gl_1k.jpg"
    },
    {
      "mimeType": "image/jpeg",
      "name": "crepe_satin_diff",
      "uri": "textures/crepe_satin_diff_1k.jpg"
    },
    {
      "mimeType": "image/jpeg",
      "name": "crepe_satin_metal-crepe_satin_rough",
      "uri": "textures/crepe_satin_arm_1k.jpg"
    }
  ],
  "accessors": [
    {
      "bufferView": 0,
      "componentType": 5126,
      "count": 53937,
      "max": [
        0.13395820558071136,
        0.13392373919487,
        0.1340024471282959
      ],
      "min": [
        -0.1339486837387085,
        -0.133971706032753,
        -0.1340026557445526
      ],
      "type": "VEC3"
    },
    {
      "bufferView": 1,
      "componentType": 5126,
      "count": 53937,
      "type": "VEC3"
    },
    {
      "bufferView": 2,
      "componentType": 5126,
      "count": 53937,
      "type": "VEC2"
    },
    {
      "bufferView": 3,
      "componentType": 5123,
      "count": 322170,
      "type": "SCALAR"
    }
  ],
  "bufferViews": [
    {
      "buffer": 0,
      "byteLength": 647244,
      "byteOffset": 0,
      "target": 34962
    },
    {
      "buffer": 0,
      "byteLength": 647244,
      "byteOffset": 647244,
      "target": 34962
    },
    {
      "buffer": 0,
      "byteLength": 431496,
      "byteOffset": 1294488,
      "target": 34962
    },
    {
      "buffer": 0,
      "byteLength": 644340,
      "byteOffset": 1725984,
      "target": 34963
    }
  ],
  "samplers": [
    {
      "magFilter": 9729,
      "minFilter": 9987
    }
  ],
  "buffers": [
    {
      "byteLength": 2370324,
      "uri": "crepe_satin.bin"
    }
  ]
}